<?xml version="1.0"?><svg xmlns="http://www.w3.org/2000/svg" xmlns:xlink="http://www.w3.org/1999/xlink" width="1584" height="672" viewBox="0 0 1584 672" xmlns:c2pa="http://c2pa.org/manifest"><metadata><c2pa:manifest>AAAOlmp1bWIAAAAeanVtZGMycGEAEQAQgAAAqgA4m3EDYzJwYQAAAA5wanVtYgAAAEdqdW1kYzJtYQARABCAAACqADibcQN1cm46YzJwYTo2NGJlZmZjMS0yNDdmLTRkMzktYTIzNS0xOWRhNGRiM2Y4YmIAAAADr2p1bWIAAAApanVtZGMyYXMAEQAQgAAAqgA4m3EDYzJwYS5hc3NlcnRpb25zAAAAAMxqdW1iAAAARGp1bWRjYm9yABEAEIAAAKoAOJtxE2MycGEuaW5ncmVkaWVudC52MwAAAAAYYzJzaMZTXWzgaDrOCB/kzD6usOkAAACAY2JvcqRscmVsYXRpb25zaGlwaHBhcmVudE9maGRjOnRpdGxlZnNvdXJjZWlkYzpmb3JtYXRtaW1hZ2Uvc3ZnK3htbGppbnN0YW5jZUlEeCx4bXA6aWlkOjBjNjFhMzg0LWExZWUtNGMyOC04MWQxLThiY2YxMDRlMDk4MAAAAe5qdW1iAAAAQWp1bWRjYm9yABEAEIAAAKoAOJtxE2MycGEuYWN0aW9ucy52MgAAAAAYYzJzaJChGfeFaORZh0x2nsuFsJgAAAGlY2JvcqFnYWN0aW9uc4KiZmFjdGlvbmtjMnBhLm9wZW5lZGpwYXJhbWV0ZXJzoWtpbmdyZWRpZW50c4GiY3VybHgtc2VsZiNqdW1iZj1jMnBhLmFzc2VydGlvbnMvYzJwYS5pbmdyZWRpZW50LnYzZGhhc2hYIASP7V6jfBb8zerX66Cwou/C79aLRlhuua8PcYP9eFcEpGZhY3Rpb25sYzJwYS5jcmVhdGVkanBhcmFtZXRlcnOha2luZ3JlZGllbnRzgaJjdXJseC1zZWxmI2p1bWJmPWMycGEuYXNzZXJ0aW9ucy9jMnBhLmluZ3JlZGllbnQudjNkaGFzaFggBI/tXqN8FvzN6tfroLCi78Lv1otGWG65rw9xg/14VwRxZGlnaXRhbFNvdXJjZVR5cGV4QWh0dHA6Ly9jdi5pcHRjLm9yZy9uZXdzY29kZXMvZGlnaXRhbHNvdXJjZXR5cGUvY29tcG9zaXRlU3ludGhldGlja2Rlc2NyaXB0aW9ueB9Db21wb3NlZCBpbiB0aGUgUmVjcmFmdCBlZGl0b3IuAAAAxGp1bWIAAABAanVtZGNib3IAEQAQgAAAqgA4m3ETYzJwYS5oYXNoLmRhdGEAAAAAGGMyc2jEtZaGllz6aYbKSRTPqWETAAAAfGNib3KlamV4Y2x1c2lvbnOBomVzdGFydBjqZmxlbmd0aBkTdGRuYW1lbmp1bWJmIG1hbmlmZXN0Y2FsZ2ZzaGEyNTZkaGFzaFggV1Eecv85R/LvHhLI0uL0zL/JQjzwV5V6wMZELxkWR8tjcGFkSQAAAAAAAAAAAAAAApZqdW1iAAAAJ2p1bWRjMmNsABEAEIAAAKoAOJtxA2MycGEuY2xhaW0udjIAAAACZ2Nib3Knamluc3RhbmNlSUR4LHhtcDppaWQ6ZTY1NmE1OTYtODgxYy00YmNkLWE4NzgtNDQyNmEwYWVmNjUxdGNsYWltX2dlbmVyYXRvcl9pbmZvo2RuYW1lanJlY3JhZnQuYWlndmVyc2lvbngoODFjZTgyZTJjNWMzY2JmYmU4YzZmYmUxNzlkNWY4ZDkxYzQwOWNlMXdvcmcuY29udGVudGF1dGguYzJwYV9yc2YwLjkwLjdpc2lnbmF0dXJleE1zZWxmI2p1bWJmPS9jMnBhL3VybjpjMnBhOjY0YmVmZmMxLTI0N2YtNGQzOS1hMjM1LTE5ZGE0ZGIzZjhiYi9jMnBhLnNpZ25hdHVyZXJjcmVhdGVkX2Fzc2VydGlvbnOComN1cmx4KnNlbGYjanVtYmY9YzJwYS5hc3NlcnRpb25zL2MycGEuYWN0aW9ucy52MmRoYXNoWCBBeeO//Wj9V1pKqWexqDWLzS8VM8P90r3jhuM3zHJ2IqJjdXJseClzZWxmI2p1bWJmPWMycGEuYXNzZXJ0aW9ucy9jMnBhLmhhc2guZGF0YWRoYXNoWCDexD5FMVv0DRGLce5or3/t6BDAZrktCXtBajXk5G6dH3NnYXRoZXJlZF9hc3NlcnRpb25zgaJjdXJseC1zZWxmI2p1bWJmPWMycGEuYXNzZXJ0aW9ucy9jMnBhLmluZ3JlZGllbnQudjNkaGFzaFggBI/tXqN8FvzN6tfroLCi78Lv1otGWG65rw9xg/14VwRoZGM6dGl0bGVtUmVjcmFmdCBJbWFnZWNhbGdmc2hhMjU2AAAH3Gp1bWIAAAAoanVtZGMyY3MAEQAQgAAAqgA4m3EDYzJwYS5zaWduYXR1cmUAAAAHrGNib3LShFkDsKIBJhghglkB5zCCAeMwggGJoAMCAQICCQC33lpjQ1FuejAKBggqhkjOPQQDAjBAMR8wHQYDVQQDDBZSZWNyYWZ0IFN0YWdpbmcgRGV2IENBMRAwDgYDVQQKDAdSZWNyYWZ0MQswCQYDVQQGEwJVUzAeFw0yNjA2MTIxOTQzNTBaFw0yNzA2MTIxOTQzNTBaMDcxCzAJBgNVBAYTAlVTMRMwEQYDVQQKEwpSZWNyYWZ0IEFJMRMwEQYDVQQDEwpyZWNyYWZ0LmFpMFkwEwYHKoZIzj0CAQYIKoZIzj0DAQcDQgAESmk1WwArIPw3hty3jsWHSA/1QOhBRu9xOjpJ2/iiIghScoEVM+Lnjds/7dqmG+giFL0vEb4DoogpX6KrGLcPNaN1MHMwDAYDVR0TAQH/BAIwADAOBgNVHQ8BAf8EBAMCBsAwEwYDVR0lBAwwCgYIKwYBBQUHAwQwHQYDVR0OBBYEFC8x6QXp/eki9cuCDx2vDJDLIV39MB8GA1UdIwQYMBaAFAILKjgayqqXSv/5v5MWaO2UeHm3MAoGCCqGSM49BAMCA0gAMEUCIFPISltGl775PEkIFRTZGsevWJvWnvBrE9kWU0MPgedQAiEAtA+AZBKEQ+DdK9mUZDctB2Wlt1iAsv0GRjfeYpReMsxZAb0wggG5MIIBX6ADAgECAgkAnPloO0+gE28wCgYIKoZIzj0EAwIwQDEfMB0GA1UEAwwWUmVjcmFmdCBTdGFnaW5nIERldiBDQTEQMA4GA1UECgwHUmVjcmFmdDELMAkGA1UEBhMCVVMwHhcNMjYwNjEyMTk0MDE2WhcNMjgwNjExMTk0MDE2WjBAMR8wHQYDVQQDDBZSZWNyYWZ0IFN0YWdpbmcgRGV2IENBMRAwDgYDVQQKDAdSZWNyYWZ0MQswCQYDVQQGEwJVUzBZMBMGByqGSM49AgEGCCqGSM49AwEHA0IABEPSEAZXFWymij2K0EnzoS/9NLO8VAwu0YpyLizvyNZPfcvcoeqFhfZD8Wj/rcdb9T3ji98q1arie99B9GRog8qjQjBAMA8GA1UdEwEB/wQFMAMBAf8wDgYDVR0PAQH/BAQDAgGGMB0GA1UdDgQWBBQCCyo4Gsqql0r/+b+TFmjtlHh5tzAKBggqhkjOPQQDAgNIADBFAiBUMDSJi5WA3kIY4BfmYqk24HLs0qpjicN0NpUP4bvNxQIhAPTvHC5v8X6FS6geI7XW7h84t1i/qdkTfg0RpMKWLMFboWNwYWRZA6QAAAAAAAAAAAAAAAAAAAAAAAAAAAAAAAAAAAAAAAAAAAAAAAAAAAAAAAAAAAAAAAAAAAAAAAAAAAAAAAAAAAAAAAAAAAAAAAAAAAAAAAAAAAAAAAAAAAAAAAAAAAAAAAAAAAAAAAAAAAAAAAAAAAAAAAAAAAAAAAAAAAAAAAAAAAAAAAAAAAAAAAAAAAAAAAAAAAAAAAAAAAAAAAAAAAAAAAAAAAAAAAAAAAAAAAAAAAAAAAAAAAAAAAAAAAAAAAAAAAAAAAAAAAAAAAAAAAAAAAAAAAAAAAAAAAAAAAAAAAAAAAAAAAAAAAAAAAAAAAAAAAAAAAAAAAAAAAAAAAAAAAAAAAAAAAAAAAAAAAAAAAAAAAAAAAAAAAAAAAAAAAAAAAAAAAAAAAAAAAAAAAAAAAAAAAAAAAAAAAAAAAAAAAAAAAAAAAAAAAAAAAAAAAAAAAAAAAAAAAAAAAAAAAAAAAAAAAAAAAAAAAAAAAAAAAAAAAAAAAAAAAAAAAAAAAAAAAAAAAAAAAAAAAAAAAAAAAAAAAAAAAAAAAAAAAAAAAAAAAAAAAAAAAAAAAAAAAAAAAAAAAAAAAAAAAAAAAAAAAAAAAAAAAAAAAAAAAAAAAAAAAAAAAAAAAAAAAAAAAAAAAAAAAAAAAAAAAAAAAAAAAAAAAAAAAAAAAAAAAAAAAAAAAAAAAAAAAAAAAAAAAAAAAAAAAAAAAAAAAAAAAAAAAAAAAAAAAAAAAAAAAAAAAAAAAAAAAAAAAAAAAAAAAAAAAAAAAAAAAAAAAAAAAAAAAAAAAAAAAAAAAAAAAAAAAAAAAAAAAAAAAAAAAAAAAAAAAAAAAAAAAAAAAAAAAAAAAAAAAAAAAAAAAAAAAAAAAAAAAAAAAAAAAAAAAAAAAAAAAAAAAAAAAAAAAAAAAAAAAAAAAAAAAAAAAAAAAAAAAAAAAAAAAAAAAAAAAAAAAAAAAAAAAAAAAAAAAAAAAAAAAAAAAAAAAAAAAAAAAAAAAAAAAAAAAAAAAAAAAAAAAAAAAAAAAAAAAAAAAAAAAAAAAAAAAAAAAAAAAAAAAAAAAAAAAAAAAAAAAAAAAAAAAAAAAAAAAAAAAAAAAAAAAAAAAAAAAAAAAAAAAAAAAAAAAAAAAAAAAAAAAAAAAAAAAAAAAAAAAAAAAAAAAAAAAAAAAAAAAAAAAAAAAAAAAAAAAAAAAAAAAAAAAAAAAAAAAAAAAAAAAAAAAAAAAAAAAAAAAAAAPZYQKY1+HKSAxsHmKZLDvUeg70nV7iXkxtc6QnJhzb/PLYscFPUdDmRPEGLlFRixuzBrF2NVbhh6kY0+tng3goWPJY=</c2pa:manifest></metadata><path fill="#A31F1E" d="M607.406 125.679C624.99 125.329 642.828 125.362 660.435 125.257L659.367 310.162L501.211 307.782C473.16 338.985 446.31 371.478 418.336 402.777C410.066 412.03 401.196 422.135 393.774 432.03L393.65 515.112C421.905 514.785 450.692 513.939 478.943 513.216C480.372 484.319 481.622 455.412 482.694 426.499C488.2 418.476 501.21 404.071 508.055 396.219C508.29 446.216 508.136 496.213 507.593 546.206L362.671 547.487L361.636 419.633C382.447 393.544 408.965 364.641 431.122 338.923L466.135 298.286C472.635 290.75 480.883 280.741 487.768 273.847C534.758 273.73 582.353 271.965 629.493 271.431C628.364 258.22 628.39 241.42 628.05 227.931C627.607 206.619 626.907 185.313 625.95 164.018L509.19 160.771C468.576 209.44 427.463 257.69 385.858 305.514L216.004 306.096L214.904 126.088L419.356 128.363C408.727 139.858 398.489 151.688 387.776 163.219L249.771 161.581L248.753 269.795C277.813 268.612 308.797 268.599 339 268.585C349.713 268.581 360.329 268.576 370.725 268.519L496.62 127.293C532.785 125.774 570.977 126.123 607.406 125.679Z"></path><path d="M886.774 320.068L1078.66 320.032L1078.76 362.434C1049.5 362.779 1019.81 362.684 990.247 362.589L989.324 362.586C975.249 362.541 961.203 362.497 947.247 362.501C946.889 377.857 946.878 393.22 947.18 408.578L1064.03 408.542C1064.17 417.687 1064.13 427.078 1064.08 436.397C1064.06 440.905 1064.04 445.395 1064.04 449.833L967.079 449.892L947.359 449.936C947.046 466.642 947.012 483.351 947.269 500.057L1036.23 500.038C1039.5 500.037 1043.43 499.994 1047.67 499.947C1060.13 499.809 1075.25 499.642 1084.02 500.437L1084.11 542.293L886.747 542.352L886.774 320.068Z"></path><path d="M1244.09 320.3L1244.15 320.3L1244.3 320.301C1250.29 320.334 1256.22 320.366 1261.98 320.357C1272.96 342.397 1284.58 369.549 1294.95 392.198L1363.53 542.169C1350.65 542.379 1337.43 542.33 1324.33 542.281L1324.25 542.281L1324.21 542.281C1317.96 542.258 1311.75 542.235 1305.6 542.24C1298.81 526.809 1292.14 511.317 1285.64 495.765L1264.63 495.656L1182.11 495.656L1162.46 542.17L1106.55 542.267L1205.84 320.49C1218.11 320.156 1231.23 320.229 1244.09 320.3ZM1199.58 454.322L1234.42 454.38L1267.9 454.319C1260.56 436.171 1253.09 418.068 1245.52 400.014C1242.78 393.478 1236.62 378.064 1233.29 372.765C1222.39 400.087 1211.15 427.276 1199.58 454.322Z"></path><path d="M674.177 319.198L735.166 319.207C735.737 332.541 735.605 348.418 735.48 363.407L735.479 363.504C735.426 369.776 735.375 375.89 735.377 381.597L735.39 499.985C763.86 499.568 792.953 499.687 821.857 499.806L821.985 499.807C835.613 499.862 849.198 499.918 862.656 499.917C862.86 514.748 862.876 529.582 862.704 544.413L674.248 544.537C673.885 528.066 673.995 510.621 674.102 493.477L674.103 493.359L674.104 493.181C674.156 484.998 674.207 476.886 674.205 468.982L674.177 319.198Z"></path><path d="M472.07 115.259L477.348 113.745C475.624 122.885 473.752 131.995 471.732 141.073L466.431 135.838L386.722 219.699C382.868 223.724 360.919 247.07 357.872 249.174C354.991 245.26 352.753 243.316 349.192 240.008C356.987 228.956 382.153 203.866 392.965 192.773C413.899 171.296 435.427 147.226 456.52 126.277L451.248 121.397C458.199 119.387 465.14 117.341 472.07 115.259Z"></path><path d="M484.886 228.578C488.837 231.023 491.972 234.252 495.355 237.444C488.505 246.242 471.22 263.951 463.252 272.479L400.35 339.533L405.561 344.441C399.871 346.1 394.196 347.814 388.538 349.582L377.989 352.917C379.892 343.81 382.031 334.754 384.401 325.757L389.119 330.736C420.135 298.991 454.732 261.415 484.886 228.578Z"></path><path d="M339.752 248.984L340.48 247.689C342.098 247.343 342.382 247.523 342.878 247.838C343.278 248.091 343.814 248.431 345.292 248.654L344.061 244.752C344.748 242.208 344.207 242.997 345.917 241.394C348.518 241.007 351.357 243.558 354.167 246.084C355.416 247.205 356.658 248.322 357.872 249.174C357.223 249.948 356.566 250.716 355.903 251.478C354.663 252.883 354.245 253.463 353.68 253.713C353.039 253.996 352.21 253.852 349.777 254.004C349.979 254.448 350.155 254.792 350.304 255.081L350.304 255.081C350.795 256.04 350.98 256.401 350.786 257.85L349.181 257.92C343.661 255.38 343.239 253.977 339.752 248.984Z"></path><path d="M490.91 222.448C494.318 224.723 497.829 228.263 500.87 231.116C499.694 232.697 497.699 234.905 496.371 236.472C493.498 234.191 488.455 230.774 487.303 227.602C487.817 224.56 488.191 225.072 490.91 222.448Z"></path><path d="M492.94 218.534C498.295 219.152 503.693 224.992 503.867 230.545C499.304 229.11 492.767 223.769 492.94 218.534Z"></path><path d="M495.826 215.538C501.628 217.131 505.962 219.448 506.713 225.676C502.034 225.002 498.053 219.31 495.826 215.538Z"></path><path d="M336.393 251.052C341.867 252.375 344.842 256.919 347.392 261.495C340.957 259.536 339.004 257.015 336.393 251.052Z"></path></svg>